<svg width="501" height="210" viewBox="0 0 501 210" fill="none" xmlns="http://www.w3.org/2000/svg">
<path d="M176.688 73H175.92L195.056 28.2L195.76 27.88L211.888 73H206.448L201.456 58.92H182.768L176.688 73ZM193.072 35.112L183.024 58.28H201.264L193.072 35.112ZM223.876 73C220.121 73 217.753 72.0187 216.772 70.056C216.558 69.6293 216.452 69.2453 216.452 68.904V25.064H220.932V68.456C220.932 69.6933 221.166 70.6533 221.635 71.336C222.148 71.976 222.66 72.3173 223.172 72.36L223.876 72.488H225.86V73H223.876ZM230.365 41.512V41H231.709V34.6H236.189V41H245.981V41.512H236.189V64.808C236.189 67.5813 236.488 69.5867 237.085 70.824C237.725 72.0613 239.026 72.68 240.989 72.68C242.994 72.68 245.021 72.2747 247.069 71.464L247.261 71.976C245.128 72.7867 242.674 73.192 239.901 73.192C237.17 73.192 235.122 72.6373 233.757 71.528C232.392 70.376 231.709 68.1147 231.709 64.744V41.512H230.365ZM256.651 73C254.901 73 253.557 72.616 252.619 71.848C251.723 71.08 251.253 70.312 251.211 69.544L251.147 68.456V41H255.627V68.456C255.627 69.6933 255.861 70.6533 256.331 71.336C256.843 71.976 257.333 72.3173 257.803 72.36L258.571 72.488H260.555V73H256.651ZM251.531 33.832C251.019 33.32 250.763 32.68 250.763 31.912C250.763 31.144 251.019 30.504 251.531 29.992C252.043 29.4373 252.683 29.16 253.451 29.16C254.219 29.16 254.859 29.4373 255.371 29.992C255.925 30.504 256.203 31.144 256.203 31.912C256.203 32.68 255.925 33.32 255.371 33.832C254.859 34.344 254.219 34.6 253.451 34.6C252.683 34.6 252.043 34.344 251.531 33.832ZM285.489 41.384L285.873 41C286.043 41.0853 286.257 41.3413 286.513 41.768C286.811 42.1947 286.982 42.5787 287.025 42.92C287.11 43.2613 287.153 43.5813 287.153 43.88C287.153 45.032 286.897 46.2053 286.385 47.4L274.097 73H273.457L261.553 41H266.033L275.825 67.496L285.745 47.4C286.257 46.504 286.513 45.4373 286.513 44.2C286.513 42.9627 286.171 42.024 285.489 41.384ZM317.117 73C314.216 73 312.232 72.4453 311.165 71.336C310.184 70.3973 309.693 69.5867 309.693 68.904V67.56C307.602 71.3573 304.253 73.256 299.645 73.256C294.269 73.256 291.218 70.824 290.493 65.96C290.408 65.448 290.365 64.936 290.365 64.424C290.365 63.8693 290.45 63.272 290.621 62.632C290.792 61.992 291.282 61.288 292.093 60.52C293.714 58.984 297.277 58.0453 302.781 57.704C304.146 57.576 305.405 57.512 306.557 57.512C307.709 57.512 308.754 57.5547 309.693 57.64V47.016C309.608 46.9733 309.608 46.7813 309.693 46.44C309.778 46.056 309.693 45.5867 309.437 45.032C309.224 44.4347 308.925 43.8587 308.541 43.304C308.157 42.7493 307.474 42.28 306.493 41.896C305.512 41.4693 304.232 41.256 302.653 41.256C301.074 41.256 299.218 41.5547 297.085 42.152C294.994 42.7067 293.458 43.2613 292.477 43.816L292.221 43.368C296.018 41.6187 299.88 40.744 303.805 40.744C308.2 40.744 311.101 41.5333 312.509 43.112C313.618 44.3493 314.173 45.6507 314.173 47.016V68.456C314.173 69.6933 314.408 70.6533 314.877 71.336C315.389 71.976 315.901 72.3173 316.413 72.36L317.117 72.488H319.101V73H317.117ZM300.669 72.744C302.93 72.744 304.957 71.976 306.749 70.44C308.584 68.8613 309.565 67.3467 309.693 65.896V58.152C308.541 58.0667 307.368 58.024 306.173 58.024C305.021 58.024 303.869 58.088 302.717 58.216C299.474 58.6 297.362 59.3253 296.381 60.392C295.4 61.4587 294.909 62.9307 294.909 64.808C294.909 65.1493 294.93 65.5333 294.973 65.96C295.357 70.4827 297.256 72.744 300.669 72.744ZM365.974 73.256C357.995 73.256 352.086 70.9947 348.246 66.472C346.88 64.8507 345.771 62.696 344.918 60.008C344.064 57.32 343.638 54.056 343.638 50.216C343.638 46.376 344.256 42.9413 345.494 39.912C346.774 36.84 348.502 34.472 350.678 32.808C354.902 29.6933 360 28.136 365.974 28.136C367.894 28.136 369.771 28.2853 371.606 28.584C373.44 28.84 374.806 29.1173 375.701 29.416L377.046 29.864L376.854 30.504C373.526 29.352 369.899 28.776 365.974 28.776C361.451 28.776 357.675 30.248 354.646 33.192C352.342 35.368 350.72 38.568 349.782 42.792C349.227 45.1813 348.95 48.104 348.95 51.56C348.95 55.016 349.44 58.216 350.422 61.16C351.403 64.0613 352.512 66.216 353.75 67.624C355.03 69.032 356.566 70.1627 358.358 71.016C360.15 71.8267 361.579 72.296 362.646 72.424C363.712 72.552 364.971 72.616 366.422 72.616C367.915 72.616 369.899 72.4453 372.374 72.104V58.92H364.63V58.28H380.438V58.92H377.686V71.528C374.443 72.68 370.539 73.256 365.974 73.256ZM399.728 73.256C395.248 73.256 391.6 71.976 388.784 69.416C385.968 66.856 384.56 62.9093 384.56 57.576C384.56 52.2427 386.011 48.104 388.912 45.16C391.856 42.216 395.568 40.744 400.048 40.744C404.571 40.744 408.24 42.024 411.056 44.584C413.872 47.144 415.28 51.0907 415.28 56.424C415.28 61.7573 413.808 65.896 410.864 68.84C407.963 71.784 404.251 73.256 399.728 73.256ZM400.176 41.256C396.933 41.256 394.245 42.7067 392.112 45.608C389.979 48.4667 388.912 52.4773 388.912 57.64C388.912 62.76 389.893 66.5573 391.856 69.032C393.819 71.5067 396.421 72.744 399.664 72.744C402.907 72.744 405.595 71.3147 407.728 68.456C409.861 65.5547 410.928 61.544 410.928 56.424C410.928 51.2613 409.947 47.4427 407.984 44.968C406.021 42.4933 403.419 41.256 400.176 41.256ZM428.501 73C424.746 73 422.378 72.0187 421.397 70.056C421.183 69.6293 421.077 69.2453 421.077 68.904V25.064H425.557V68.456C425.557 69.6933 425.791 70.6533 426.26 71.336C426.773 71.976 427.285 72.3173 427.797 72.36L428.501 72.488H430.485V73H428.501ZM434.06 58.152C434.06 52.6053 435.404 48.3173 438.092 45.288C440.78 42.2587 444.812 40.744 450.188 40.744C452.705 40.744 455.244 41.384 457.804 42.664V25.064H462.284V68.456C462.284 69.6933 462.519 70.6533 462.988 71.336C463.5 71.976 464.012 72.3173 464.524 72.36L465.228 72.488H467.212V73H463.308C461.559 73 460.215 72.616 459.276 71.848C458.38 71.08 457.911 70.312 457.868 69.544L457.804 68.456V67.432C456.993 68.9253 455.649 70.248 453.772 71.4C451.895 72.552 449.676 73.128 447.116 73.128C438.412 72.9147 434.06 67.9227 434.06 58.152ZM447.18 72.616C450.039 72.616 452.492 71.848 454.54 70.312C456.588 68.776 457.676 67.2613 457.804 65.768V43.24C454.775 41.9173 452.172 41.256 449.996 41.256C446.199 41.256 443.34 42.7493 441.42 45.736C439.5 48.68 438.54 52.8187 438.54 58.152C438.54 67.7947 441.42 72.616 447.18 72.616Z" fill="#E7EA61"/>
<line x1="248.967" y1="94.8384" x2="470.08" y2="94.8384" stroke="#C4C74E"/>
<path d="M191.152 118.2L191.512 115.632H192.448L192.136 117.792C192.536 118.192 193.032 118.536 193.624 118.824C194.216 119.112 194.96 119.256 195.856 119.256C196.4 119.256 196.928 119.168 197.44 118.992C197.968 118.816 198.448 118.576 198.88 118.272C199.312 117.952 199.672 117.568 199.96 117.12C200.264 116.656 200.456 116.144 200.536 115.584C200.648 114.88 200.608 114.304 200.416 113.856C200.24 113.408 199.984 113.032 199.648 112.728C199.296 112.44 198.88 112.216 198.4 112.056C197.936 111.88 197.456 111.712 196.96 111.552C196.464 111.408 195.968 111.248 195.472 111.072C194.992 110.896 194.568 110.664 194.2 110.376C193.848 110.088 193.568 109.728 193.36 109.296C193.168 108.848 193.104 108.28 193.168 107.592C193.232 107.064 193.376 106.536 193.6 106.008C193.824 105.464 194.144 104.976 194.56 104.544C194.976 104.112 195.48 103.768 196.072 103.512C196.68 103.24 197.384 103.104 198.184 103.104C198.456 103.104 198.744 103.12 199.048 103.152C199.368 103.184 199.688 103.24 200.008 103.32C200.328 103.4 200.64 103.528 200.944 103.704C201.264 103.864 201.56 104.064 201.832 104.304L201.472 106.896H200.512L200.824 104.784C200.552 104.592 200.176 104.424 199.696 104.28C199.232 104.12 198.672 104.04 198.016 104.04C197.472 104.04 196.976 104.136 196.528 104.328C196.096 104.504 195.712 104.744 195.376 105.048C195.04 105.368 194.768 105.736 194.56 106.152C194.368 106.552 194.248 106.976 194.2 107.424C194.104 108.016 194.152 108.496 194.344 108.864C194.552 109.216 194.832 109.512 195.184 109.752C195.536 109.992 195.952 110.192 196.432 110.352C196.912 110.512 197.408 110.672 197.92 110.832C198.432 110.992 198.92 111.184 199.384 111.408C199.864 111.616 200.28 111.888 200.632 112.224C200.984 112.576 201.248 113.016 201.424 113.544C201.6 114.072 201.64 114.736 201.544 115.536C201.448 116.24 201.224 116.88 200.872 117.456C200.536 118.032 200.112 118.52 199.6 118.92C199.088 119.336 198.504 119.656 197.848 119.88C197.192 120.088 196.52 120.192 195.832 120.192C195.208 120.192 194.64 120.128 194.128 120C193.616 119.872 193.16 119.704 192.76 119.496C192.376 119.304 192.048 119.096 191.776 118.872C191.504 118.632 191.296 118.408 191.152 118.2ZM208.181 111.768C207.573 111.768 207.005 111.896 206.477 112.152C205.949 112.392 205.493 112.72 205.109 113.136C204.709 113.552 204.405 114.024 204.197 114.552C203.989 115.08 203.901 115.624 203.933 116.184C205.085 115.752 206.229 115.328 207.365 114.912C208.501 114.48 209.645 114.048 210.797 113.616C210.589 113.072 210.253 112.632 209.789 112.296C209.325 111.944 208.789 111.768 208.181 111.768ZM211.973 114.168C210.645 114.664 209.325 115.152 208.013 115.632C206.717 116.112 205.405 116.608 204.077 117.12C204.285 117.744 204.653 118.248 205.181 118.632C205.725 119.016 206.373 119.208 207.125 119.208C207.621 119.208 208.101 119.12 208.565 118.944C209.029 118.752 209.437 118.504 209.789 118.2C209.885 118.312 209.973 118.432 210.053 118.56C210.133 118.672 210.221 118.792 210.317 118.92C209.837 119.304 209.317 119.608 208.757 119.832C208.213 120.056 207.629 120.168 207.005 120.168C206.349 120.168 205.749 120.048 205.205 119.808C204.677 119.568 204.237 119.232 203.885 118.8C203.501 118.368 203.221 117.872 203.045 117.312C202.885 116.752 202.853 116.144 202.949 115.488C203.045 114.848 203.253 114.24 203.573 113.664C203.893 113.088 204.301 112.592 204.797 112.176C205.277 111.76 205.813 111.432 206.405 111.192C207.013 110.936 207.653 110.808 208.325 110.808C208.805 110.808 209.253 110.896 209.669 111.072C210.101 111.248 210.477 111.488 210.797 111.792C211.101 112.08 211.349 112.432 211.541 112.848C211.749 113.248 211.893 113.688 211.973 114.168ZM213.015 119.064H214.767L217.047 102.936H215.367L215.487 102H218.175L215.751 119.064H217.647L217.527 120H212.895L213.015 119.064ZM219.319 119.064H221.071L223.351 102.936H221.671L221.791 102H224.479L222.055 119.064H223.951L223.831 120H219.199L219.319 119.064ZM225.624 119.064H227.472L228.48 111.936H226.608L226.752 111H229.584L228.456 119.064H230.256L230.136 120H225.504L225.624 119.064ZM228.792 107.808C228.824 107.584 228.928 107.4 229.104 107.256C229.28 107.096 229.472 107.016 229.68 107.016C229.872 107.016 230.032 107.096 230.16 107.256C230.304 107.4 230.368 107.584 230.352 107.808C230.304 108.032 230.192 108.224 230.016 108.384C229.84 108.528 229.656 108.6 229.464 108.6C229.256 108.6 229.08 108.528 228.936 108.384C228.792 108.224 228.744 108.032 228.792 107.808ZM238.697 119.064H240.569L241.313 113.76C241.361 113.232 241.233 112.784 240.929 112.416C240.641 112.032 240.161 111.824 239.489 111.792C239.009 111.792 238.529 111.872 238.049 112.032C237.585 112.192 237.161 112.416 236.777 112.704C236.409 113.008 236.089 113.36 235.817 113.76C235.561 114.16 235.401 114.6 235.337 115.08L234.785 119.064H236.561L236.441 120H231.809L231.929 119.064H233.801L234.785 111.936H233.081L233.201 111H235.721L235.649 111.864C235.617 112.136 235.593 112.384 235.577 112.608C235.561 112.816 235.537 113.056 235.505 113.328C235.937 112.576 236.537 111.968 237.305 111.504C238.073 111.04 238.905 110.808 239.801 110.808C240.681 110.808 241.345 111.056 241.793 111.552C242.241 112.048 242.425 112.696 242.345 113.496L241.553 119.064H243.329L243.209 120H238.577L238.697 119.064ZM255.639 111H258.207L258.087 111.936H256.287L255.039 120.816C254.927 121.616 254.711 122.336 254.391 122.976C254.071 123.616 253.679 124.16 253.215 124.608C252.735 125.04 252.207 125.376 251.631 125.616C251.071 125.856 250.471 125.984 249.831 126C249.047 126 248.343 125.88 247.719 125.64C247.111 125.4 246.623 125.04 246.255 124.56L247.071 123.816C247.375 124.232 247.767 124.528 248.247 124.704C248.743 124.896 249.263 124.992 249.807 124.992C250.303 124.992 250.799 124.896 251.295 124.704C251.791 124.512 252.231 124.224 252.615 123.84C252.983 123.472 253.295 123.024 253.551 122.496C253.823 121.968 253.999 121.392 254.079 120.768L254.295 119.112C254.327 118.92 254.359 118.736 254.391 118.56C254.423 118.384 254.455 118.2 254.487 118.008C254.119 118.616 253.583 119.128 252.879 119.544C252.191 119.96 251.375 120.168 250.431 120.168C249.759 120.168 249.151 120.048 248.607 119.808C248.079 119.552 247.631 119.208 247.263 118.776C246.895 118.36 246.623 117.872 246.447 117.312C246.287 116.752 246.255 116.144 246.351 115.488C246.447 114.864 246.655 114.264 246.975 113.688C247.295 113.112 247.703 112.608 248.199 112.176C248.679 111.76 249.223 111.432 249.831 111.192C250.439 110.936 251.071 110.808 251.727 110.808C252.207 110.808 252.639 110.872 253.023 111C253.407 111.112 253.751 111.272 254.055 111.48C254.343 111.688 254.583 111.936 254.775 112.224C254.983 112.496 255.143 112.792 255.255 113.112C255.303 112.76 255.359 112.408 255.423 112.056C255.503 111.704 255.575 111.352 255.639 111ZM247.335 115.488C247.271 116.032 247.303 116.536 247.431 117C247.575 117.464 247.807 117.864 248.127 118.2C248.415 118.504 248.759 118.752 249.159 118.944C249.575 119.12 250.039 119.208 250.551 119.208C251.079 119.208 251.583 119.112 252.063 118.92C252.543 118.728 252.975 118.456 253.359 118.104C253.743 117.784 254.063 117.4 254.319 116.952C254.575 116.504 254.743 116.016 254.823 115.488C254.887 114.976 254.855 114.496 254.727 114.048C254.599 113.584 254.391 113.184 254.103 112.848C253.815 112.512 253.455 112.248 253.023 112.056C252.591 111.864 252.111 111.768 251.583 111.768C251.055 111.768 250.551 111.864 250.071 112.056C249.591 112.248 249.159 112.512 248.775 112.848C248.391 113.184 248.071 113.584 247.815 114.048C247.575 114.496 247.415 114.976 247.335 115.488ZM271.572 125.064H273.564L274.404 119.136C274.436 118.944 274.46 118.768 274.476 118.608C274.508 118.432 274.548 118.232 274.596 118.008C274.228 118.632 273.684 119.152 272.964 119.568C272.26 119.984 271.444 120.192 270.516 120.192C269.86 120.192 269.26 120.072 268.716 119.832C268.188 119.576 267.74 119.24 267.372 118.824C267.004 118.408 266.732 117.912 266.556 117.336C266.396 116.76 266.364 116.152 266.46 115.512C266.556 114.872 266.764 114.272 267.084 113.712C267.404 113.136 267.812 112.632 268.308 112.2C268.788 111.768 269.332 111.432 269.94 111.192C270.548 110.952 271.18 110.832 271.836 110.832C272.78 110.832 273.556 111.064 274.164 111.528C274.772 111.976 275.172 112.52 275.364 113.16C275.412 112.808 275.468 112.448 275.532 112.08C275.612 111.712 275.684 111.352 275.748 111H278.34L278.22 111.936H276.396L274.572 125.064H276.18L276.084 126H271.452L271.572 125.064ZM267.444 115.512C267.38 116.056 267.412 116.56 267.54 117.024C267.684 117.488 267.908 117.888 268.212 118.224C268.5 118.544 268.852 118.792 269.268 118.968C269.684 119.144 270.148 119.232 270.66 119.232C271.172 119.232 271.668 119.136 272.148 118.944C272.644 118.752 273.084 118.488 273.468 118.152C273.852 117.816 274.172 117.424 274.428 116.976C274.684 116.512 274.852 116.024 274.932 115.512C274.996 114.984 274.964 114.488 274.836 114.024C274.708 113.56 274.492 113.16 274.188 112.824C273.9 112.504 273.54 112.256 273.108 112.08C272.692 111.888 272.22 111.792 271.692 111.792C271.164 111.792 270.66 111.888 270.18 112.08C269.7 112.272 269.268 112.536 268.884 112.872C268.5 113.208 268.18 113.6 267.924 114.048C267.684 114.496 267.524 114.984 267.444 115.512ZM286.598 120L286.742 118.752L286.886 117.672C286.454 118.44 285.854 119.056 285.086 119.52C284.318 119.968 283.494 120.192 282.614 120.192C281.734 120.192 281.07 119.944 280.622 119.448C280.174 118.952 279.99 118.304 280.07 117.504L280.838 111.936H279.062L279.206 111H281.966L281.102 117.24C281.054 117.768 281.174 118.224 281.462 118.608C281.766 118.976 282.246 119.176 282.902 119.208C283.398 119.208 283.878 119.128 284.342 118.968C284.806 118.808 285.23 118.576 285.614 118.272C285.998 117.984 286.318 117.64 286.574 117.24C286.83 116.84 286.998 116.4 287.078 115.92L287.63 111.936H285.854L285.974 111H288.734L287.606 119.136H289.31L289.19 120H286.598ZM291.496 115.488C291.592 114.864 291.8 114.264 292.12 113.688C292.44 113.112 292.848 112.608 293.344 112.176C293.824 111.76 294.368 111.432 294.976 111.192C295.584 110.936 296.216 110.808 296.872 110.808C297.352 110.808 297.784 110.872 298.168 111C298.568 111.128 298.92 111.296 299.224 111.504C299.528 111.728 299.776 111.984 299.968 112.272C300.176 112.56 300.32 112.84 300.4 113.112C300.448 112.76 300.504 112.408 300.568 112.056C300.648 111.704 300.72 111.352 300.784 111H301.576L300.448 119.064H302.224L302.08 120H299.416L299.56 119.016C299.576 118.824 299.6 118.64 299.632 118.464C299.664 118.288 299.696 118.104 299.728 117.912C299.632 118.104 299.496 118.296 299.32 118.488C299.144 118.68 298.936 118.864 298.696 119.04C298.296 119.376 297.824 119.648 297.28 119.856C296.752 120.064 296.184 120.168 295.576 120.168C294.904 120.168 294.296 120.048 293.752 119.808C293.224 119.568 292.776 119.232 292.408 118.8C292.04 118.368 291.768 117.872 291.592 117.312C291.432 116.752 291.4 116.144 291.496 115.488ZM292.48 115.488C292.416 116.032 292.448 116.536 292.576 117C292.72 117.464 292.952 117.864 293.272 118.2C293.56 118.52 293.904 118.768 294.304 118.944C294.72 119.12 295.184 119.208 295.696 119.208C296.208 119.208 296.704 119.112 297.184 118.92C297.68 118.728 298.12 118.456 298.504 118.104C298.888 117.784 299.208 117.4 299.464 116.952C299.72 116.504 299.888 116.016 299.968 115.488C300.032 114.976 300 114.496 299.872 114.048C299.744 113.584 299.536 113.184 299.248 112.848C298.96 112.512 298.6 112.248 298.168 112.056C297.736 111.864 297.256 111.768 296.728 111.768C296.2 111.768 295.696 111.864 295.216 112.056C294.736 112.248 294.304 112.512 293.92 112.848C293.536 113.184 293.216 113.584 292.96 114.048C292.72 114.496 292.56 114.976 292.48 115.488ZM303.882 119.064H305.634L307.914 102.936H306.234L306.354 102H309.042L306.618 119.064H308.514L308.394 120H303.762L303.882 119.064ZM310.187 119.064H312.035L313.043 111.936H311.171L311.315 111H314.147L313.019 119.064H314.819L314.699 120H310.067L310.187 119.064ZM313.355 107.808C313.387 107.584 313.491 107.4 313.667 107.256C313.843 107.096 314.035 107.016 314.243 107.016C314.435 107.016 314.595 107.096 314.723 107.256C314.867 107.4 314.931 107.584 314.915 107.808C314.867 108.032 314.755 108.224 314.579 108.384C314.403 108.528 314.219 108.6 314.027 108.6C313.819 108.6 313.643 108.528 313.499 108.384C313.355 108.224 313.307 108.032 313.355 107.808ZM320.523 105.144H321.507L320.691 111H323.475L323.331 111.96H320.571L319.563 119.064H321.531L321.411 120H318.459L319.587 111.96H317.475L317.619 111H319.707L320.523 105.144ZM325.406 125.064H327.422C327.966 124.216 328.502 123.376 329.03 122.544C329.574 121.712 330.11 120.88 330.638 120.048C330.158 118.704 329.67 117.36 329.174 116.016C328.678 114.672 328.19 113.312 327.71 111.936H325.862L326.006 111H330.446L330.302 111.936H328.766C329.214 113.152 329.654 114.352 330.086 115.536C330.518 116.72 330.926 117.912 331.31 119.112C331.982 117.944 332.702 116.76 333.47 115.56C334.254 114.36 335.038 113.152 335.822 111.936H334.43L334.55 111H338.75L338.606 111.936H336.878C335.454 114.144 334.046 116.336 332.654 118.512C331.278 120.672 329.886 122.856 328.478 125.064H330.038L329.918 126H325.286L325.406 125.064ZM356.28 111H358.848L358.728 111.936H356.928L355.68 120.816C355.568 121.616 355.352 122.336 355.032 122.976C354.712 123.616 354.32 124.16 353.856 124.608C353.376 125.04 352.848 125.376 352.272 125.616C351.712 125.856 351.112 125.984 350.472 126C349.688 126 348.984 125.88 348.36 125.64C347.752 125.4 347.264 125.04 346.896 124.56L347.712 123.816C348.016 124.232 348.408 124.528 348.888 124.704C349.384 124.896 349.904 124.992 350.448 124.992C350.944 124.992 351.44 124.896 351.936 124.704C352.432 124.512 352.872 124.224 353.256 123.84C353.624 123.472 353.936 123.024 354.192 122.496C354.464 121.968 354.64 121.392 354.72 120.768L354.936 119.112C354.968 118.92 355 118.736 355.032 118.56C355.064 118.384 355.096 118.2 355.128 118.008C354.76 118.616 354.224 119.128 353.52 119.544C352.832 119.96 352.016 120.168 351.072 120.168C350.4 120.168 349.792 120.048 349.248 119.808C348.72 119.552 348.272 119.208 347.904 118.776C347.536 118.36 347.264 117.872 347.088 117.312C346.928 116.752 346.896 116.144 346.992 115.488C347.088 114.864 347.296 114.264 347.616 113.688C347.936 113.112 348.344 112.608 348.84 112.176C349.32 111.76 349.864 111.432 350.472 111.192C351.08 110.936 351.712 110.808 352.368 110.808C352.848 110.808 353.28 110.872 353.664 111C354.048 111.112 354.392 111.272 354.696 111.48C354.984 111.688 355.224 111.936 355.416 112.224C355.624 112.496 355.784 112.792 355.896 113.112C355.944 112.76 356 112.408 356.064 112.056C356.144 111.704 356.216 111.352 356.28 111ZM347.976 115.488C347.912 116.032 347.944 116.536 348.072 117C348.216 117.464 348.448 117.864 348.768 118.2C349.056 118.504 349.4 118.752 349.8 118.944C350.216 119.12 350.68 119.208 351.192 119.208C351.72 119.208 352.224 119.112 352.704 118.92C353.184 118.728 353.616 118.456 354 118.104C354.384 117.784 354.704 117.4 354.96 116.952C355.216 116.504 355.384 116.016 355.464 115.488C355.528 114.976 355.496 114.496 355.368 114.048C355.24 113.584 355.032 113.184 354.744 112.848C354.456 112.512 354.096 112.248 353.664 112.056C353.232 111.864 352.752 111.768 352.224 111.768C351.696 111.768 351.192 111.864 350.712 112.056C350.232 112.248 349.8 112.512 349.416 112.848C349.032 113.184 348.712 113.584 348.456 114.048C348.216 114.496 348.056 114.976 347.976 115.488ZM359.114 115.488C359.21 114.848 359.418 114.24 359.738 113.664C360.058 113.088 360.458 112.584 360.938 112.152C361.434 111.736 361.978 111.408 362.57 111.168C363.178 110.912 363.818 110.784 364.49 110.784C365.13 110.784 365.722 110.912 366.266 111.168C366.826 111.408 367.29 111.736 367.658 112.152C368.026 112.584 368.29 113.088 368.45 113.664C368.626 114.24 368.666 114.848 368.57 115.488C368.474 116.144 368.266 116.752 367.946 117.312C367.626 117.872 367.226 118.368 366.746 118.8C366.25 119.232 365.69 119.568 365.066 119.808C364.458 120.048 363.826 120.168 363.17 120.168C362.514 120.168 361.914 120.048 361.37 119.808C360.842 119.568 360.394 119.232 360.026 118.8C359.658 118.368 359.386 117.872 359.21 117.312C359.05 116.752 359.018 116.144 359.114 115.488ZM360.098 115.488C360.018 116.016 360.042 116.504 360.17 116.952C360.298 117.4 360.506 117.784 360.794 118.104C361.082 118.456 361.434 118.728 361.85 118.92C362.282 119.112 362.754 119.208 363.266 119.208C363.778 119.208 364.274 119.112 364.754 118.92C365.25 118.728 365.69 118.456 366.074 118.104C366.458 117.784 366.778 117.4 367.034 116.952C367.29 116.504 367.458 116.016 367.538 115.488C367.602 114.976 367.57 114.496 367.442 114.048C367.314 113.6 367.106 113.2 366.818 112.848C366.53 112.512 366.17 112.248 365.738 112.056C365.306 111.864 364.834 111.768 364.322 111.768C363.794 111.768 363.29 111.864 362.81 112.056C362.346 112.248 361.922 112.512 361.538 112.848C361.154 113.2 360.834 113.608 360.578 114.072C360.322 114.52 360.162 114.992 360.098 115.488ZM369.718 119.064H371.47L373.75 102.936H372.07L372.19 102H374.878L372.454 119.064H374.35L374.23 120H369.598L369.718 119.064ZM384.615 119.016C384.647 118.824 384.679 118.64 384.711 118.464C384.743 118.288 384.767 118.104 384.783 117.912C384.415 118.552 383.871 119.088 383.151 119.52C382.431 119.952 381.591 120.168 380.631 120.168C379.959 120.168 379.351 120.048 378.807 119.808C378.279 119.568 377.831 119.232 377.463 118.8C377.095 118.368 376.823 117.872 376.646 117.312C376.487 116.752 376.455 116.144 376.551 115.488C376.647 114.848 376.855 114.24 377.175 113.664C377.495 113.088 377.903 112.592 378.399 112.176C378.879 111.76 379.423 111.432 380.031 111.192C380.639 110.936 381.271 110.808 381.927 110.808C382.791 110.808 383.535 111.032 384.159 111.48C384.799 111.912 385.207 112.432 385.383 113.04C385.431 112.688 385.471 112.336 385.503 111.984C385.551 111.616 385.607 111.264 385.671 110.928L386.775 102.936H385.095L385.215 102H387.903L385.503 119.064H387.279L387.135 120H384.471L384.615 119.016ZM377.535 115.488C377.471 116.032 377.503 116.536 377.631 117C377.759 117.448 377.975 117.84 378.279 118.176C378.583 118.496 378.943 118.752 379.359 118.944C379.775 119.12 380.239 119.208 380.751 119.208C381.263 119.208 381.759 119.112 382.239 118.92C382.735 118.728 383.175 118.456 383.559 118.104C383.943 117.784 384.263 117.4 384.519 116.952C384.775 116.504 384.943 116.016 385.023 115.488C385.087 114.976 385.055 114.496 384.927 114.048C384.815 113.6 384.615 113.208 384.327 112.872C384.039 112.52 383.671 112.248 383.223 112.056C382.791 111.864 382.311 111.768 381.783 111.768C381.255 111.768 380.751 111.864 380.271 112.056C379.791 112.248 379.359 112.512 378.975 112.848C378.591 113.184 378.271 113.584 378.015 114.048C377.775 114.496 377.615 114.976 377.535 115.488ZM396.516 119.304L396.756 117.552H397.668L397.5 118.776C397.74 118.936 398.012 119.056 398.316 119.136C398.636 119.2 398.972 119.232 399.324 119.232C399.612 119.232 399.868 119.2 400.092 119.136C400.316 119.056 400.54 118.944 400.764 118.8C400.972 118.656 401.14 118.488 401.268 118.296C401.396 118.088 401.476 117.84 401.508 117.552C401.556 117.136 401.492 116.816 401.316 116.592C401.156 116.368 400.916 116.184 400.596 116.04C400.292 115.912 399.956 115.792 399.588 115.68C399.22 115.568 398.876 115.432 398.556 115.272C398.252 115.112 398.012 114.888 397.836 114.6C397.66 114.296 397.604 113.88 397.668 113.352C397.732 112.92 397.86 112.552 398.052 112.248C398.26 111.944 398.508 111.688 398.796 111.48C399.084 111.272 399.388 111.12 399.708 111.024C400.028 110.912 400.332 110.856 400.62 110.856C400.684 110.856 400.812 110.864 401.004 110.88C401.212 110.896 401.436 110.928 401.676 110.976C401.916 111.04 402.156 111.136 402.396 111.264C402.636 111.376 402.828 111.52 402.972 111.696L402.732 113.448H401.82L402.012 112.2C401.804 112.056 401.58 111.96 401.34 111.912C401.1 111.848 400.86 111.816 400.62 111.816C400.428 111.816 400.212 111.848 399.972 111.912C399.748 111.96 399.548 112.04 399.372 112.152C399.196 112.28 399.044 112.44 398.916 112.632C398.788 112.824 398.708 113.056 398.676 113.328C398.628 113.68 398.7 113.96 398.892 114.168C399.084 114.36 399.34 114.52 399.66 114.648C399.964 114.792 400.3 114.928 400.668 115.056C401.036 115.168 401.372 115.32 401.676 115.512C401.964 115.704 402.188 115.952 402.348 116.256C402.508 116.56 402.564 116.968 402.516 117.48C402.484 117.816 402.396 118.128 402.252 118.416C402.124 118.704 401.932 118.976 401.676 119.232C401.404 119.52 401.06 119.752 400.644 119.928C400.244 120.104 399.78 120.192 399.252 120.192C398.724 120.192 398.204 120.12 397.692 119.976C397.196 119.832 396.804 119.608 396.516 119.304ZM403.866 119.064H405.714L406.722 111.936H404.85L404.994 111H407.826L406.698 119.064H408.498L408.378 120H403.746L403.866 119.064ZM407.034 107.808C407.066 107.584 407.17 107.4 407.346 107.256C407.522 107.096 407.714 107.016 407.922 107.016C408.114 107.016 408.274 107.096 408.402 107.256C408.546 107.4 408.61 107.584 408.594 107.808C408.546 108.032 408.434 108.224 408.258 108.384C408.082 108.528 407.898 108.6 407.706 108.6C407.498 108.6 407.322 108.528 407.178 108.384C407.034 108.224 406.986 108.032 407.034 107.808ZM416.939 119.064H418.811L419.555 113.76C419.603 113.232 419.475 112.784 419.171 112.416C418.883 112.032 418.403 111.824 417.731 111.792C417.251 111.792 416.771 111.872 416.291 112.032C415.827 112.192 415.403 112.416 415.019 112.704C414.651 113.008 414.331 113.36 414.059 113.76C413.803 114.16 413.643 114.6 413.579 115.08L413.027 119.064H414.803L414.683 120H410.051L410.171 119.064H412.043L413.027 111.936H411.323L411.443 111H413.963L413.891 111.864C413.859 112.136 413.835 112.384 413.819 112.608C413.803 112.816 413.779 113.056 413.747 113.328C414.179 112.576 414.779 111.968 415.547 111.504C416.315 111.04 417.147 110.808 418.043 110.808C418.923 110.808 419.587 111.056 420.035 111.552C420.483 112.048 420.667 112.696 420.587 113.496L419.795 119.064H421.571L421.451 120H416.819L416.939 119.064ZM430.953 119.136C430.489 119.456 429.993 119.712 429.465 119.904C428.953 120.08 428.409 120.168 427.833 120.168C427.177 120.168 426.577 120.048 426.033 119.808C425.505 119.568 425.065 119.232 424.713 118.8C424.329 118.368 424.049 117.872 423.873 117.312C423.713 116.752 423.681 116.144 423.777 115.488C423.873 114.848 424.081 114.24 424.401 113.664C424.721 113.088 425.129 112.592 425.625 112.176C426.105 111.76 426.641 111.432 427.233 111.192C427.841 110.936 428.481 110.808 429.153 110.808C429.729 110.808 430.257 110.904 430.737 111.096C431.217 111.272 431.633 111.52 431.985 111.84L431.649 114.192H430.761L431.001 112.416C430.729 112.208 430.425 112.048 430.089 111.936C429.753 111.824 429.393 111.768 429.009 111.768C428.481 111.768 427.977 111.864 427.497 112.056C427.017 112.248 426.585 112.512 426.201 112.848C425.817 113.184 425.497 113.584 425.241 114.048C424.985 114.496 424.825 114.976 424.761 115.488C424.681 116.032 424.705 116.536 424.833 117C424.977 117.464 425.209 117.864 425.529 118.2C425.801 118.52 426.145 118.768 426.561 118.944C426.977 119.12 427.441 119.208 427.953 119.208C428.401 119.208 428.833 119.136 429.249 118.992C429.681 118.848 430.073 118.648 430.425 118.392L430.953 119.136ZM438.384 111.768C437.776 111.768 437.208 111.896 436.68 112.152C436.152 112.392 435.696 112.72 435.312 113.136C434.912 113.552 434.608 114.024 434.4 114.552C434.192 115.08 434.104 115.624 434.136 116.184C435.288 115.752 436.432 115.328 437.568 114.912C438.704 114.48 439.848 114.048 441 113.616C440.792 113.072 440.456 112.632 439.992 112.296C439.528 111.944 438.992 111.768 438.384 111.768ZM442.176 114.168C440.848 114.664 439.528 115.152 438.216 115.632C436.92 116.112 435.608 116.608 434.28 117.12C434.488 117.744 434.856 118.248 435.384 118.632C435.928 119.016 436.576 119.208 437.328 119.208C437.824 119.208 438.304 119.12 438.768 118.944C439.232 118.752 439.64 118.504 439.992 118.2C440.088 118.312 440.176 118.432 440.256 118.56C440.336 118.672 440.424 118.792 440.52 118.92C440.04 119.304 439.52 119.608 438.96 119.832C438.416 120.056 437.832 120.168 437.208 120.168C436.552 120.168 435.952 120.048 435.408 119.808C434.88 119.568 434.44 119.232 434.088 118.8C433.704 118.368 433.424 117.872 433.248 117.312C433.088 116.752 433.056 116.144 433.152 115.488C433.248 114.848 433.456 114.24 433.776 113.664C434.096 113.088 434.504 112.592 435 112.176C435.48 111.76 436.016 111.432 436.608 111.192C437.216 110.936 437.856 110.808 438.528 110.808C439.008 110.808 439.456 110.896 439.872 111.072C440.304 111.248 440.68 111.488 441 111.792C441.304 112.08 441.552 112.432 441.744 112.848C441.952 113.248 442.096 113.688 442.176 114.168ZM449.693 119.064H451.589L453.509 105.36H451.205L451.349 104.4H454.637L452.573 119.064H454.493L454.349 120H449.549L449.693 119.064ZM466.269 109.752C466.349 109.192 466.317 108.672 466.173 108.192C466.045 107.712 465.829 107.288 465.525 106.92C465.205 106.552 464.813 106.264 464.349 106.056C463.901 105.848 463.397 105.744 462.837 105.744C462.293 105.744 461.757 105.848 461.229 106.056C460.701 106.264 460.229 106.552 459.813 106.92C459.397 107.288 459.045 107.712 458.757 108.192C458.469 108.672 458.285 109.192 458.205 109.752C458.125 110.312 458.157 110.84 458.301 111.336C458.445 111.816 458.685 112.232 459.021 112.584C459.325 112.952 459.709 113.24 460.173 113.448C460.653 113.656 461.165 113.76 461.709 113.76C462.253 113.76 462.781 113.656 463.293 113.448C463.821 113.24 464.293 112.952 464.709 112.584C465.125 112.232 465.469 111.816 465.741 111.336C466.029 110.84 466.205 110.312 466.269 109.752ZM467.277 109.752C467.117 110.888 466.717 111.952 466.077 112.944C465.453 113.936 464.685 114.864 463.773 115.728C462.893 116.576 461.925 117.376 460.869 118.128C459.829 118.864 458.821 119.552 457.845 120.192C457.749 120.064 457.661 119.936 457.581 119.808C457.501 119.68 457.413 119.544 457.317 119.4C458.245 118.84 459.085 118.288 459.837 117.744C460.589 117.2 461.253 116.68 461.829 116.184C462.389 115.672 462.877 115.2 463.293 114.768C463.709 114.32 464.045 113.904 464.301 113.52C463.949 113.888 463.533 114.184 463.053 114.408C462.589 114.616 462.093 114.72 461.565 114.72C460.877 114.72 460.245 114.592 459.669 114.336C459.093 114.08 458.605 113.72 458.205 113.256C457.821 112.808 457.533 112.288 457.341 111.696C457.165 111.088 457.125 110.44 457.221 109.752C457.317 109.064 457.541 108.424 457.893 107.832C458.245 107.224 458.685 106.696 459.213 106.248C459.725 105.8 460.301 105.448 460.941 105.192C461.597 104.92 462.277 104.784 462.981 104.784C463.669 104.784 464.293 104.92 464.853 105.192C465.429 105.448 465.917 105.8 466.317 106.248C466.701 106.696 466.981 107.224 467.157 107.832C467.333 108.424 467.373 109.064 467.277 109.752ZM472.494 107.856C472.43 108.208 472.446 108.536 472.542 108.84C472.654 109.128 472.814 109.376 473.022 109.584C473.23 109.792 473.478 109.952 473.766 110.064C474.07 110.176 474.406 110.232 474.774 110.232C475.126 110.232 475.462 110.176 475.782 110.064C476.118 109.952 476.414 109.792 476.67 109.584C476.942 109.376 477.166 109.128 477.342 108.84C477.518 108.536 477.638 108.208 477.702 107.856C477.75 107.488 477.726 107.144 477.63 106.824C477.55 106.488 477.414 106.2 477.222 105.96C477.014 105.72 476.758 105.528 476.454 105.384C476.166 105.24 475.846 105.168 475.494 105.168C475.126 105.168 474.766 105.248 474.414 105.408C474.078 105.552 473.782 105.744 473.526 105.984C473.254 106.224 473.022 106.504 472.83 106.824C472.654 107.144 472.542 107.488 472.494 107.856ZM470.094 115.2C470.03 115.744 470.062 116.264 470.19 116.76C470.334 117.24 470.558 117.664 470.862 118.032C471.166 118.4 471.542 118.696 471.99 118.92C472.438 119.128 472.942 119.232 473.502 119.232C474.062 119.232 474.598 119.128 475.11 118.92C475.638 118.696 476.118 118.4 476.55 118.032C476.982 117.664 477.334 117.24 477.606 116.76C477.894 116.264 478.07 115.744 478.134 115.2C478.23 114.64 478.206 114.128 478.062 113.664C477.918 113.184 477.686 112.76 477.366 112.392C477.046 112.04 476.654 111.76 476.19 111.552C475.726 111.328 475.214 111.216 474.654 111.216C474.094 111.216 473.55 111.32 473.022 111.528C472.51 111.736 472.054 112.016 471.654 112.368C471.254 112.736 470.918 113.16 470.646 113.64C470.374 114.12 470.19 114.64 470.094 115.2ZM469.086 115.2C469.166 114.624 469.326 114.088 469.566 113.592C469.822 113.08 470.134 112.616 470.502 112.2C470.838 111.848 471.206 111.536 471.606 111.264C472.006 110.992 472.438 110.784 472.902 110.64C472.406 110.384 472.022 110 471.75 109.488C471.494 108.976 471.414 108.4 471.51 107.76C471.574 107.264 471.726 106.808 471.966 106.392C472.206 105.96 472.518 105.576 472.902 105.24C473.27 104.92 473.678 104.672 474.126 104.496C474.59 104.304 475.07 104.208 475.566 104.208C476.078 104.208 476.534 104.304 476.934 104.496C477.35 104.688 477.702 104.944 477.99 105.264C478.262 105.6 478.462 105.984 478.59 106.416C478.718 106.848 478.75 107.312 478.686 107.808C478.59 108.448 478.342 109.016 477.942 109.512C477.558 110.008 477.086 110.384 476.526 110.64C476.942 110.784 477.318 110.984 477.654 111.24C477.99 111.496 478.27 111.8 478.494 112.152C478.766 112.568 478.958 113.032 479.07 113.544C479.182 114.056 479.198 114.608 479.118 115.2C479.022 115.888 478.798 116.536 478.446 117.144C478.094 117.752 477.662 118.272 477.15 118.704C476.622 119.168 476.03 119.536 475.374 119.808C474.734 120.064 474.07 120.192 473.382 120.192C472.694 120.192 472.062 120.064 471.486 119.808C470.926 119.536 470.454 119.168 470.07 118.704C469.686 118.272 469.398 117.752 469.206 117.144C469.03 116.536 468.99 115.888 469.086 115.2ZM484.728 107.856C484.664 108.208 484.68 108.536 484.776 108.84C484.888 109.128 485.048 109.376 485.256 109.584C485.464 109.792 485.712 109.952 486 110.064C486.304 110.176 486.64 110.232 487.008 110.232C487.36 110.232 487.696 110.176 488.016 110.064C488.352 109.952 488.648 109.792 488.904 109.584C489.176 109.376 489.4 109.128 489.576 108.84C489.752 108.536 489.872 108.208 489.936 107.856C489.984 107.488 489.96 107.144 489.864 106.824C489.784 106.488 489.648 106.2 489.456 105.96C489.248 105.72 488.992 105.528 488.688 105.384C488.4 105.24 488.08 105.168 487.728 105.168C487.36 105.168 487 105.248 486.648 105.408C486.312 105.552 486.016 105.744 485.76 105.984C485.488 106.224 485.256 106.504 485.064 106.824C484.888 107.144 484.776 107.488 484.728 107.856ZM482.328 115.2C482.264 115.744 482.296 116.264 482.424 116.76C482.568 117.24 482.792 117.664 483.096 118.032C483.4 118.4 483.776 118.696 484.224 118.92C484.672 119.128 485.176 119.232 485.736 119.232C486.296 119.232 486.832 119.128 487.344 118.92C487.872 118.696 488.352 118.4 488.784 118.032C489.216 117.664 489.568 117.24 489.84 116.76C490.128 116.264 490.304 115.744 490.368 115.2C490.464 114.64 490.44 114.128 490.296 113.664C490.152 113.184 489.92 112.76 489.6 112.392C489.28 112.04 488.888 111.76 488.424 111.552C487.96 111.328 487.448 111.216 486.888 111.216C486.328 111.216 485.784 111.32 485.256 111.528C484.744 111.736 484.288 112.016 483.888 112.368C483.488 112.736 483.152 113.16 482.88 113.64C482.608 114.12 482.424 114.64 482.328 115.2ZM481.32 115.2C481.4 114.624 481.56 114.088 481.8 113.592C482.056 113.08 482.368 112.616 482.736 112.2C483.072 111.848 483.44 111.536 483.84 111.264C484.24 110.992 484.672 110.784 485.136 110.64C484.64 110.384 484.256 110 483.984 109.488C483.728 108.976 483.648 108.4 483.744 107.76C483.808 107.264 483.96 106.808 484.2 106.392C484.44 105.96 484.752 105.576 485.136 105.24C485.504 104.92 485.912 104.672 486.36 104.496C486.824 104.304 487.304 104.208 487.8 104.208C488.312 104.208 488.768 104.304 489.168 104.496C489.584 104.688 489.936 104.944 490.224 105.264C490.496 105.6 490.696 105.984 490.824 106.416C490.952 106.848 490.984 107.312 490.92 107.808C490.824 108.448 490.576 109.016 490.176 109.512C489.792 110.008 489.32 110.384 488.76 110.64C489.176 110.784 489.552 110.984 489.888 111.24C490.224 111.496 490.504 111.8 490.728 112.152C491 112.568 491.192 113.032 491.304 113.544C491.416 114.056 491.432 114.608 491.352 115.2C491.256 115.888 491.032 116.536 490.68 117.144C490.328 117.752 489.896 118.272 489.384 118.704C488.856 119.168 488.264 119.536 487.608 119.808C486.968 120.064 486.304 120.192 485.616 120.192C484.928 120.192 484.296 120.064 483.72 119.808C483.16 119.536 482.688 119.168 482.304 118.704C481.92 118.272 481.632 117.752 481.44 117.144C481.264 116.536 481.224 115.888 481.32 115.2Z" fill="#E7EA61"/>
<g filter="url(#filter0_d_78_313)">
<path d="M111.962 5L61.8067 90.9514L89.3111 86.077L111.962 48.0569L132.275 82.9899H157.263L111.962 5Z" stroke="#C4C74E" stroke-width="5" shape-rendering="crispEdges"/>
<path d="M191.239 140.995L165.173 95.6633C186.769 93.8317 197.24 92.4142 240.136 95.6633C213.89 91.7757 202.843 88.5003 165.173 88.0268C159.42 87.3908 155.922 87.083 141.264 88.0268C116.816 90.6584 118.049 86.1538 61.8067 101.513C48.7502 106.36 43.1215 106.62 24.0556 120.198C16.2431 126.15 12.019 129.736 7.51702 140.995C6.66394 152.092 4.5649 157.778 24.0556 175.603C37.7489 184.841 46.9585 190.001 79.6036 199C67.3918 191.947 61.4677 190.266 46.1669 175.603C42.4115 164.378 33.8354 162.937 44.3693 140.995H191.239Z" stroke="#C4C74E" stroke-width="5" shape-rendering="crispEdges"/>
</g>
<defs>
<filter id="filter0_d_78_313" x="0.500244" y="0.03125" width="244.002" height="209.379" filterUnits="userSpaceOnUse" color-interpolation-filters="sRGB">
<feFlood flood-opacity="0" result="BackgroundImageFix"/>
<feColorMatrix in="SourceAlpha" type="matrix" values="0 0 0 0 0 0 0 0 0 0 0 0 0 0 0 0 0 0 127 0" result="hardAlpha"/>
<feOffset dy="4"/>
<feGaussianBlur stdDeviation="2"/>
<feComposite in2="hardAlpha" operator="out"/>
<feColorMatrix type="matrix" values="0 0 0 0 0 0 0 0 0 0 0 0 0 0 0 0 0 0 0.25 0"/>
<feBlend mode="normal" in2="BackgroundImageFix" result="effect1_dropShadow_78_313"/>
<feBlend mode="normal" in="SourceGraphic" in2="effect1_dropShadow_78_313" result="shape"/>
</filter>
</defs>
</svg>
