<svg width="354" height="195" viewBox="0 0 354 195" fill="none" xmlns="http://www.w3.org/2000/svg">
<path d="M177 0L249.298 18.6208L293.98 67.3708V127.629L249.298 176.379L177 195L104.702 176.379L60.0201 127.629V67.3708L104.702 18.6208L177 0Z" fill="#C4C74E"/>
<path d="M90.1329 155H87.2529V134.68H80.1169V132.152H97.2369V134.68H90.1329V155ZM106.704 137.528C107.024 137.528 107.366 137.549 107.728 137.592C108.112 137.613 108.443 137.656 108.72 137.72L108.368 140.312C108.091 140.248 107.782 140.195 107.44 140.152C107.12 140.109 106.811 140.088 106.512 140.088C105.851 140.088 105.222 140.227 104.624 140.504C104.027 140.781 103.494 141.176 103.024 141.688C102.555 142.179 102.182 142.776 101.904 143.48C101.648 144.184 101.52 144.973 101.52 145.848V155H98.7044V137.848H101.008L101.328 140.984H101.456C101.819 140.344 102.256 139.768 102.768 139.256C103.28 138.723 103.867 138.307 104.528 138.008C105.19 137.688 105.915 137.528 106.704 137.528ZM117.794 137.56C119.885 137.56 121.431 138.019 122.434 138.936C123.437 139.853 123.938 141.315 123.938 143.32V155H121.89L121.346 152.568H121.218C120.727 153.187 120.215 153.709 119.682 154.136C119.17 154.541 118.573 154.84 117.89 155.032C117.229 155.224 116.418 155.32 115.458 155.32C114.434 155.32 113.506 155.139 112.674 154.776C111.863 154.413 111.223 153.859 110.754 153.112C110.285 152.344 110.05 151.384 110.05 150.232C110.05 148.525 110.722 147.213 112.066 146.296C113.41 145.357 115.479 144.845 118.274 144.76L121.186 144.664V143.64C121.186 142.211 120.877 141.219 120.258 140.664C119.639 140.109 118.765 139.832 117.634 139.832C116.738 139.832 115.885 139.971 115.074 140.248C114.263 140.504 113.506 140.803 112.802 141.144L111.938 139.032C112.685 138.627 113.57 138.285 114.594 138.008C115.618 137.709 116.685 137.56 117.794 137.56ZM118.626 146.712C116.493 146.797 115.01 147.139 114.178 147.736C113.367 148.333 112.962 149.176 112.962 150.264C112.962 151.224 113.25 151.928 113.826 152.376C114.423 152.824 115.181 153.048 116.098 153.048C117.549 153.048 118.754 152.653 119.714 151.864C120.674 151.053 121.154 149.816 121.154 148.152V146.616L118.626 146.712ZM137.492 137.528C139.54 137.528 141.086 138.029 142.132 139.032C143.177 140.013 143.7 141.613 143.7 143.832V155H140.916V144.024C140.916 142.637 140.606 141.603 139.988 140.92C139.369 140.237 138.398 139.896 137.076 139.896C135.177 139.896 133.865 140.429 133.14 141.496C132.414 142.563 132.052 144.099 132.052 146.104V155H129.236V137.848H131.508L131.924 140.184H132.084C132.468 139.587 132.937 139.096 133.492 138.712C134.068 138.307 134.697 138.008 135.38 137.816C136.062 137.624 136.766 137.528 137.492 137.528ZM160.185 150.264C160.185 151.373 159.908 152.301 159.353 153.048C158.798 153.795 158.009 154.36 156.985 154.744C155.961 155.128 154.745 155.32 153.337 155.32C152.142 155.32 151.108 155.224 150.233 155.032C149.38 154.84 148.622 154.573 147.961 154.232V151.672C148.644 152.013 149.465 152.333 150.425 152.632C151.406 152.909 152.398 153.048 153.401 153.048C154.83 153.048 155.865 152.824 156.505 152.376C157.145 151.907 157.465 151.288 157.465 150.52C157.465 150.093 157.348 149.709 157.113 149.368C156.878 149.027 156.452 148.685 155.833 148.344C155.236 148.003 154.372 147.619 153.241 147.192C152.132 146.765 151.182 146.339 150.393 145.912C149.604 145.485 148.996 144.973 148.569 144.376C148.142 143.779 147.929 143.011 147.929 142.072C147.929 140.621 148.516 139.501 149.689 138.712C150.884 137.923 152.441 137.528 154.361 137.528C155.406 137.528 156.377 137.635 157.273 137.848C158.19 138.04 159.044 138.317 159.833 138.68L158.873 140.92C158.404 140.707 157.902 140.525 157.369 140.376C156.857 140.205 156.334 140.077 155.801 139.992C155.268 139.885 154.724 139.832 154.169 139.832C153.017 139.832 152.132 140.024 151.513 140.408C150.916 140.771 150.617 141.272 150.617 141.912C150.617 142.381 150.756 142.787 151.033 143.128C151.31 143.448 151.769 143.768 152.409 144.088C153.07 144.387 153.945 144.749 155.033 145.176C156.121 145.581 157.049 145.997 157.817 146.424C158.585 146.851 159.172 147.373 159.577 147.992C159.982 148.589 160.185 149.347 160.185 150.264ZM170.825 137.56C172.916 137.56 174.463 138.019 175.465 138.936C176.468 139.853 176.969 141.315 176.969 143.32V155H174.921L174.377 152.568H174.249C173.759 153.187 173.247 153.709 172.713 154.136C172.201 154.541 171.604 154.84 170.921 155.032C170.26 155.224 169.449 155.32 168.489 155.32C167.465 155.32 166.537 155.139 165.705 154.776C164.895 154.413 164.255 153.859 163.785 153.112C163.316 152.344 163.081 151.384 163.081 150.232C163.081 148.525 163.753 147.213 165.097 146.296C166.441 145.357 168.511 144.845 171.305 144.76L174.217 144.664V143.64C174.217 142.211 173.908 141.219 173.289 140.664C172.671 140.109 171.796 139.832 170.665 139.832C169.769 139.832 168.916 139.971 168.105 140.248C167.295 140.504 166.537 140.803 165.833 141.144L164.969 139.032C165.716 138.627 166.601 138.285 167.625 138.008C168.649 137.709 169.716 137.56 170.825 137.56ZM171.657 146.712C169.524 146.797 168.041 147.139 167.209 147.736C166.399 148.333 165.993 149.176 165.993 150.264C165.993 151.224 166.281 151.928 166.857 152.376C167.455 152.824 168.212 153.048 169.129 153.048C170.58 153.048 171.785 152.653 172.745 151.864C173.705 151.053 174.185 149.816 174.185 148.152V146.616L171.657 146.712ZM189.147 155.32C187.632 155.32 186.278 155.011 185.083 154.392C183.91 153.773 182.982 152.813 182.299 151.512C181.638 150.211 181.307 148.547 181.307 146.52C181.307 144.408 181.659 142.691 182.363 141.368C183.067 140.045 184.016 139.075 185.211 138.456C186.427 137.837 187.803 137.528 189.339 137.528C190.214 137.528 191.056 137.624 191.867 137.816C192.678 137.987 193.339 138.2 193.851 138.456L192.987 140.792C192.475 140.6 191.878 140.419 191.195 140.248C190.512 140.077 189.872 139.992 189.275 139.992C188.123 139.992 187.174 140.237 186.427 140.728C185.68 141.219 185.126 141.944 184.763 142.904C184.4 143.864 184.219 145.059 184.219 146.488C184.219 147.853 184.4 149.016 184.763 149.976C185.126 150.936 185.67 151.661 186.395 152.152C187.12 152.643 188.027 152.888 189.115 152.888C190.054 152.888 190.875 152.792 191.579 152.6C192.304 152.408 192.966 152.173 193.563 151.896V154.392C192.987 154.691 192.347 154.915 191.643 155.064C190.96 155.235 190.128 155.32 189.147 155.32ZM203.37 153.016C203.797 153.016 204.234 152.984 204.682 152.92C205.13 152.835 205.493 152.749 205.77 152.664V154.808C205.471 154.957 205.045 155.075 204.49 155.16C203.935 155.267 203.402 155.32 202.89 155.32C201.994 155.32 201.162 155.171 200.394 154.872C199.647 154.552 199.039 154.008 198.57 153.24C198.101 152.472 197.866 151.395 197.866 150.008V140.024H195.434V138.68L197.898 137.56L199.018 133.912H200.682V137.848H205.642V140.024H200.682V149.944C200.682 150.989 200.927 151.768 201.418 152.28C201.93 152.771 202.581 153.016 203.37 153.016ZM212.02 137.848V155H209.204V137.848H212.02ZM210.644 131.416C211.071 131.416 211.444 131.565 211.764 131.864C212.106 132.141 212.276 132.589 212.276 133.208C212.276 133.805 212.106 134.253 211.764 134.552C211.444 134.851 211.071 135 210.644 135C210.175 135 209.78 134.851 209.46 134.552C209.14 134.253 208.98 133.805 208.98 133.208C208.98 132.589 209.14 132.141 209.46 131.864C209.78 131.565 210.175 131.416 210.644 131.416ZM232.366 146.392C232.366 147.821 232.174 149.091 231.79 150.2C231.428 151.288 230.894 152.216 230.19 152.984C229.508 153.752 228.665 154.339 227.662 154.744C226.681 155.128 225.582 155.32 224.366 155.32C223.236 155.32 222.19 155.128 221.23 154.744C220.27 154.339 219.438 153.752 218.734 152.984C218.03 152.216 217.476 151.288 217.07 150.2C216.686 149.091 216.494 147.821 216.494 146.392C216.494 144.493 216.814 142.893 217.454 141.592C218.094 140.269 219.012 139.267 220.206 138.584C221.401 137.88 222.82 137.528 224.462 137.528C226.02 137.528 227.385 137.88 228.558 138.584C229.753 139.267 230.681 140.269 231.342 141.592C232.025 142.893 232.366 144.493 232.366 146.392ZM219.406 146.392C219.406 147.736 219.577 148.909 219.918 149.912C220.281 150.893 220.836 151.651 221.582 152.184C222.329 152.717 223.278 152.984 224.43 152.984C225.582 152.984 226.532 152.717 227.278 152.184C228.025 151.651 228.569 150.893 228.91 149.912C229.273 148.909 229.454 147.736 229.454 146.392C229.454 145.027 229.273 143.864 228.91 142.904C228.548 141.944 227.993 141.208 227.246 140.696C226.521 140.163 225.572 139.896 224.398 139.896C222.649 139.896 221.38 140.472 220.59 141.624C219.801 142.776 219.406 144.365 219.406 146.392ZM245.085 137.528C247.133 137.528 248.68 138.029 249.725 139.032C250.771 140.013 251.293 141.613 251.293 143.832V155H248.509V144.024C248.509 142.637 248.2 141.603 247.581 140.92C246.963 140.237 245.992 139.896 244.669 139.896C242.771 139.896 241.459 140.429 240.733 141.496C240.008 142.563 239.645 144.099 239.645 146.104V155H236.829V137.848H239.101L239.517 140.184H239.677C240.061 139.587 240.531 139.096 241.085 138.712C241.661 138.307 242.291 138.008 242.973 137.816C243.656 137.624 244.36 137.528 245.085 137.528ZM267.779 150.264C267.779 151.373 267.501 152.301 266.947 153.048C266.392 153.795 265.603 154.36 264.579 154.744C263.555 155.128 262.339 155.32 260.931 155.32C259.736 155.32 258.701 155.224 257.827 155.032C256.973 154.84 256.216 154.573 255.555 154.232V151.672C256.237 152.013 257.059 152.333 258.019 152.632C259 152.909 259.992 153.048 260.995 153.048C262.424 153.048 263.459 152.824 264.099 152.376C264.739 151.907 265.059 151.288 265.059 150.52C265.059 150.093 264.941 149.709 264.707 149.368C264.472 149.027 264.045 148.685 263.427 148.344C262.829 148.003 261.965 147.619 260.835 147.192C259.725 146.765 258.776 146.339 257.987 145.912C257.197 145.485 256.589 144.973 256.163 144.376C255.736 143.779 255.523 143.011 255.523 142.072C255.523 140.621 256.109 139.501 257.283 138.712C258.477 137.923 260.035 137.528 261.955 137.528C263 137.528 263.971 137.635 264.867 137.848C265.784 138.04 266.637 138.317 267.427 138.68L266.467 140.92C265.997 140.707 265.496 140.525 264.963 140.376C264.451 140.205 263.928 140.077 263.395 139.992C262.861 139.885 262.317 139.832 261.763 139.832C260.611 139.832 259.725 140.024 259.107 140.408C258.509 140.771 258.211 141.272 258.211 141.912C258.211 142.381 258.349 142.787 258.627 143.128C258.904 143.448 259.363 143.768 260.003 144.088C260.664 144.387 261.539 144.749 262.627 145.176C263.715 145.581 264.643 145.997 265.411 146.424C266.179 146.851 266.765 147.373 267.171 147.992C267.576 148.589 267.779 149.347 267.779 150.264Z" fill="black"/>
<path d="M96.6934 125H86.3734V122.92L89.7334 122.16V99.32L86.3734 98.52V96.44H96.6934V98.52L93.3334 99.32V122.16L96.6934 122.92V125ZM112.048 103.16C114.608 103.16 116.541 103.787 117.848 105.04C119.155 106.267 119.808 108.267 119.808 111.04V125H116.328V111.28C116.328 109.547 115.941 108.253 115.168 107.4C114.395 106.547 113.181 106.12 111.528 106.12C109.155 106.12 107.515 106.787 106.608 108.12C105.701 109.453 105.248 111.373 105.248 113.88V125H101.728V103.56H104.568L105.088 106.48H105.288C105.768 105.733 106.355 105.12 107.048 104.64C107.768 104.133 108.555 103.76 109.408 103.52C110.261 103.28 111.141 103.16 112.048 103.16ZM143.302 122.52C143.836 122.52 144.382 122.48 144.942 122.4C145.502 122.293 145.956 122.187 146.302 122.08V124.76C145.929 124.947 145.396 125.093 144.702 125.2C144.009 125.333 143.342 125.4 142.702 125.4C141.582 125.4 140.542 125.213 139.582 124.84C138.649 124.44 137.889 123.76 137.302 122.8C136.716 121.84 136.422 120.493 136.422 118.76V106.28H133.382V104.6L136.462 103.2L137.862 98.64H139.942V103.56H146.142V106.28H139.942V118.68C139.942 119.987 140.249 120.96 140.862 121.6C141.502 122.213 142.316 122.52 143.302 122.52ZM160.595 103.16C160.995 103.16 161.422 103.187 161.875 103.24C162.355 103.267 162.769 103.32 163.115 103.4L162.675 106.64C162.329 106.56 161.942 106.493 161.515 106.44C161.115 106.387 160.729 106.36 160.355 106.36C159.529 106.36 158.742 106.533 157.995 106.88C157.249 107.227 156.582 107.72 155.995 108.36C155.409 108.973 154.942 109.72 154.595 110.6C154.275 111.48 154.115 112.467 154.115 113.56V125H150.595V103.56H153.475L153.875 107.48H154.035C154.489 106.68 155.035 105.96 155.675 105.32C156.315 104.653 157.049 104.133 157.875 103.76C158.702 103.36 159.609 103.16 160.595 103.16ZM185.039 103.56V125H182.159L181.639 122.16H181.479C181.025 122.907 180.439 123.52 179.719 124C178.999 124.48 178.212 124.827 177.359 125.04C176.505 125.28 175.612 125.4 174.679 125.4C172.972 125.4 171.532 125.133 170.359 124.6C169.212 124.04 168.345 123.187 167.759 122.04C167.172 120.893 166.879 119.413 166.879 117.6V103.56H170.439V117.36C170.439 119.067 170.825 120.347 171.599 121.2C172.372 122.053 173.572 122.48 175.199 122.48C176.799 122.48 178.052 122.187 178.959 121.6C179.892 120.987 180.545 120.107 180.919 118.96C181.319 117.787 181.519 116.373 181.519 114.72V103.56H185.039ZM205.805 119.08C205.805 120.467 205.459 121.627 204.765 122.56C204.072 123.493 203.085 124.2 201.805 124.68C200.525 125.16 199.005 125.4 197.245 125.4C195.752 125.4 194.459 125.28 193.365 125.04C192.299 124.8 191.352 124.467 190.525 124.04V120.84C191.379 121.267 192.405 121.667 193.605 122.04C194.832 122.387 196.072 122.56 197.325 122.56C199.112 122.56 200.405 122.28 201.205 121.72C202.005 121.133 202.405 120.36 202.405 119.4C202.405 118.867 202.259 118.387 201.965 117.96C201.672 117.533 201.139 117.107 200.365 116.68C199.619 116.253 198.539 115.773 197.125 115.24C195.739 114.707 194.552 114.173 193.565 113.64C192.579 113.107 191.819 112.467 191.285 111.72C190.752 110.973 190.485 110.013 190.485 108.84C190.485 107.027 191.219 105.627 192.685 104.64C194.179 103.653 196.125 103.16 198.525 103.16C199.832 103.16 201.045 103.293 202.165 103.56C203.312 103.8 204.379 104.147 205.365 104.6L204.165 107.4C203.579 107.133 202.952 106.907 202.285 106.72C201.645 106.507 200.992 106.347 200.325 106.24C199.659 106.107 198.979 106.04 198.285 106.04C196.845 106.04 195.739 106.28 194.965 106.76C194.219 107.213 193.845 107.84 193.845 108.64C193.845 109.227 194.019 109.733 194.365 110.16C194.712 110.56 195.285 110.96 196.085 111.36C196.912 111.733 198.005 112.187 199.365 112.72C200.725 113.227 201.885 113.747 202.845 114.28C203.805 114.813 204.539 115.467 205.045 116.24C205.552 116.987 205.805 117.933 205.805 119.08ZM218.146 122.52C218.679 122.52 219.226 122.48 219.786 122.4C220.346 122.293 220.799 122.187 221.146 122.08V124.76C220.773 124.947 220.239 125.093 219.546 125.2C218.853 125.333 218.186 125.4 217.546 125.4C216.426 125.4 215.386 125.213 214.426 124.84C213.493 124.44 212.733 123.76 212.146 122.8C211.559 121.84 211.266 120.493 211.266 118.76V106.28H208.226V104.6L211.306 103.2L212.706 98.64H214.786V103.56H220.986V106.28H214.786V118.68C214.786 119.987 215.093 120.96 215.706 121.6C216.346 122.213 217.159 122.52 218.146 122.52ZM233.719 103.16C235.559 103.16 237.132 103.56 238.439 104.36C239.772 105.16 240.786 106.293 241.479 107.76C242.199 109.2 242.559 110.893 242.559 112.84V114.96H227.879C227.932 117.387 228.546 119.24 229.719 120.52C230.919 121.773 232.586 122.4 234.719 122.4C236.079 122.4 237.279 122.28 238.319 122.04C239.386 121.773 240.479 121.4 241.599 120.92V124C240.506 124.48 239.426 124.827 238.359 125.04C237.292 125.28 236.026 125.4 234.559 125.4C232.532 125.4 230.732 124.987 229.159 124.16C227.612 123.333 226.399 122.107 225.519 120.48C224.666 118.827 224.239 116.813 224.239 114.44C224.239 112.093 224.626 110.08 225.399 108.4C226.199 106.72 227.306 105.427 228.719 104.52C230.159 103.613 231.826 103.16 233.719 103.16ZM233.679 106.04C231.999 106.04 230.666 106.587 229.679 107.68C228.719 108.747 228.146 110.24 227.959 112.16H238.879C238.879 110.933 238.692 109.867 238.319 108.96C237.946 108.053 237.372 107.347 236.599 106.84C235.852 106.307 234.879 106.04 233.679 106.04ZM255.617 125.4C252.951 125.4 250.817 124.48 249.217 122.64C247.617 120.773 246.817 118 246.817 114.32C246.817 110.64 247.617 107.867 249.217 106C250.844 104.107 252.991 103.16 255.657 103.16C256.777 103.16 257.751 103.307 258.577 103.6C259.404 103.867 260.124 104.24 260.737 104.72C261.351 105.2 261.871 105.733 262.297 106.32H262.537C262.511 105.973 262.457 105.467 262.377 104.8C262.324 104.107 262.297 103.56 262.297 103.16V94.6H265.817V125H262.977L262.457 122.12H262.297C261.871 122.733 261.351 123.293 260.737 123.8C260.124 124.28 259.391 124.667 258.537 124.96C257.711 125.253 256.737 125.4 255.617 125.4ZM256.177 122.48C258.444 122.48 260.031 121.867 260.937 120.64C261.871 119.387 262.337 117.507 262.337 115V114.36C262.337 111.693 261.897 109.653 261.017 108.24C260.137 106.8 258.511 106.08 256.137 106.08C254.244 106.08 252.817 106.84 251.857 108.36C250.924 109.853 250.457 111.867 250.457 114.4C250.457 116.96 250.924 118.947 251.857 120.36C252.817 121.773 254.257 122.48 256.177 122.48Z" fill="black"/>
<path d="M108.211 85.8359C108.211 86.7891 108.055 87.6797 107.742 88.5078C107.43 89.3359 107 90.0938 106.453 90.7812C105.906 91.4531 105.266 92.0547 104.531 92.5859C103.812 93.1172 103.031 93.5625 102.188 93.9219C101.359 94.2812 100.5 94.5547 99.6094 94.7422C98.7188 94.9141 97.8438 95 96.9844 95H77.1328V61.25H95.2734C96.0703 61.25 96.9062 61.3125 97.7812 61.4375C98.6562 61.5469 99.5078 61.7266 100.336 61.9766C101.18 62.2266 101.977 62.5547 102.727 62.9609C103.492 63.3672 104.156 63.8672 104.719 64.4609C105.297 65.0391 105.75 65.7109 106.078 66.4766C106.422 67.2422 106.594 68.1172 106.594 69.1016C106.594 70.0391 106.406 70.8906 106.031 71.6562C105.656 72.4219 105.148 73.1094 104.508 73.7188C103.883 74.3125 103.156 74.8438 102.328 75.3125C101.516 75.7656 100.656 76.1641 99.75 76.5078C100.891 76.8203 101.969 77.2344 102.984 77.75C104.016 78.2656 104.914 78.8984 105.68 79.6484C106.461 80.3984 107.078 81.2891 107.531 82.3203C107.984 83.3359 108.211 84.5078 108.211 85.8359ZM97.1484 69.9219C97.1484 68.0156 96.6406 66.625 95.625 65.75C94.625 64.875 93.1953 64.4375 91.3359 64.4375H86.4375V75.3828H90.5391C91.3828 75.3828 92.2031 75.2812 93 75.0781C93.7969 74.8594 94.5 74.5312 95.1094 74.0938C95.7344 73.6406 96.2266 73.0703 96.5859 72.3828C96.9609 71.6953 97.1484 70.875 97.1484 69.9219ZM98.7891 85.25C98.7891 84.3281 98.6719 83.4688 98.4375 82.6719C98.2031 81.8594 97.8438 81.1641 97.3594 80.5859C96.875 79.9922 96.2656 79.5312 95.5312 79.2031C94.8125 78.8594 93.9609 78.6875 92.9766 78.6875H86.4375V91.7188H92.1562C93.1094 91.7188 93.9922 91.5625 94.8047 91.25C95.6172 90.9375 96.3203 90.5 96.9141 89.9375C97.5078 89.375 97.9688 88.6953 98.2969 87.8984C98.625 87.1016 98.7891 86.2188 98.7891 85.25ZM123.094 95H113.789V61.25H123.094V95ZM154.992 95H130.758V61.25H140.062V90.7109H154.992V95ZM183.633 95H159.398V61.25H168.703V90.7109H183.633V95ZM197.344 95H188.039V61.25H197.344V95ZM240.234 78.0781C240.234 80.7969 239.766 83.25 238.828 85.4375C237.891 87.6094 236.594 89.4531 234.938 90.9688C233.281 92.4844 231.32 93.6484 229.055 94.4609C226.789 95.2734 224.336 95.6797 221.695 95.6797C219.055 95.6797 216.602 95.2734 214.336 94.4609C212.07 93.6484 210.109 92.4844 208.453 90.9688C206.797 89.4531 205.5 87.6094 204.562 85.4375C203.625 83.25 203.156 80.7969 203.156 78.0781C203.156 75.3125 203.617 72.8438 204.539 70.6719C205.477 68.4844 206.766 66.6406 208.406 65.1406C210.062 63.625 212.023 62.4688 214.289 61.6719C216.555 60.8594 219.023 60.4531 221.695 60.4531C224.367 60.4531 226.836 60.8594 229.102 61.6719C231.367 62.4688 233.32 63.625 234.961 65.1406C236.617 66.6406 237.906 68.4844 238.828 70.6719C239.766 72.8438 240.234 75.3125 240.234 78.0781ZM230.766 78.0781C230.766 77.0469 230.719 75.9922 230.625 74.9141C230.531 73.8359 230.359 72.7891 230.109 71.7734C229.859 70.7578 229.516 69.8047 229.078 68.9141C228.656 68.0234 228.109 67.25 227.438 66.5938C226.766 65.9219 225.953 65.3984 225 65.0234C224.062 64.6328 222.961 64.4375 221.695 64.4375C220.414 64.4375 219.297 64.6328 218.344 65.0234C217.391 65.3984 216.578 65.9141 215.906 66.5703C215.234 67.2266 214.688 68 214.266 68.8906C213.844 69.7812 213.508 70.7344 213.258 71.75C213.023 72.75 212.859 73.7969 212.766 74.8906C212.672 75.9688 212.625 77.0312 212.625 78.0781C212.625 79.1094 212.672 80.1641 212.766 81.2422C212.859 82.3203 213.031 83.3672 213.281 84.3828C213.531 85.3828 213.867 86.3281 214.289 87.2188C214.727 88.1094 215.281 88.8906 215.953 89.5625C216.625 90.2188 217.43 90.7422 218.367 91.1328C219.32 91.5234 220.43 91.7188 221.695 91.7188C222.93 91.7188 224.008 91.5234 224.93 91.1328C225.852 90.7266 226.648 90.1875 227.32 89.5156C227.992 88.8281 228.547 88.0391 228.984 87.1484C229.438 86.2422 229.789 85.2891 230.039 84.2891C230.305 83.2734 230.492 82.2344 230.602 81.1719C230.711 80.1094 230.766 79.0781 230.766 78.0781ZM250.336 95H246.023V61.25H252.07L272.578 84.4297V61.25H276.867V95H270.82L250.336 71.8438V95Z" fill="black"/>
<path d="M134.977 40.2656V45.7734C135.367 45.7266 135.758 45.6484 136.148 45.5391C136.539 45.4297 136.883 45.2734 137.18 45.0703C137.492 44.8672 137.742 44.6094 137.93 44.2969C138.117 43.9844 138.211 43.5938 138.211 43.125C138.211 42.7188 138.117 42.3672 137.93 42.0703C137.742 41.7578 137.492 41.4922 137.18 41.2734C136.883 41.0391 136.539 40.8438 136.148 40.6875C135.773 40.5312 135.383 40.3906 134.977 40.2656ZM132.164 33.9141V28.4766C131.789 28.5234 131.422 28.6094 131.062 28.7344C130.703 28.8438 130.383 29 130.102 29.2031C129.82 29.3906 129.594 29.6406 129.422 29.9531C129.25 30.2656 129.164 30.6406 129.164 31.0781C129.164 31.5 129.25 31.8672 129.422 32.1797C129.594 32.4766 129.82 32.7422 130.102 32.9766C130.383 33.1953 130.703 33.3828 131.062 33.5391C131.422 33.6797 131.789 33.8047 132.164 33.9141ZM134.977 54.7734H132.164V48.3047C131.492 48.2578 130.844 48.1719 130.219 48.0469C129.609 47.9062 128.984 47.7031 128.344 47.4375C127.719 47.1719 127.055 46.8438 126.352 46.4531C125.648 46.0625 124.867 45.5859 124.008 45.0234L126.938 41.0625C127.172 41.6562 127.461 42.2188 127.805 42.75C128.164 43.2656 128.562 43.7344 129 44.1562C129.438 44.5625 129.922 44.9062 130.453 45.1875C130.984 45.4688 131.555 45.6562 132.164 45.75V39.5156C131.289 39.2656 130.391 38.9844 129.469 38.6719C128.562 38.3438 127.727 37.9375 126.961 37.4531C126.195 36.9531 125.57 36.3359 125.086 35.6016C124.602 34.8672 124.359 33.9531 124.359 32.8594C124.359 31.6094 124.562 30.5547 124.969 29.6953C125.391 28.8359 125.961 28.1328 126.68 27.5859C127.398 27.0391 128.227 26.6328 129.164 26.3672C130.102 26.1016 131.102 25.9297 132.164 25.8516V19.5469H134.977V25.8984C135.539 25.9297 136.109 26 136.688 26.1094C137.281 26.2188 137.883 26.3984 138.492 26.6484C139.117 26.8984 139.766 27.2266 140.438 27.6328C141.125 28.0391 141.859 28.5547 142.641 29.1797L139.711 33.1406C139.289 31.8906 138.695 30.8438 137.93 30C137.18 29.1406 136.195 28.625 134.977 28.4531V34.6406C135.852 34.8906 136.758 35.1797 137.695 35.5078C138.648 35.8203 139.516 36.2266 140.297 36.7266C141.078 37.2266 141.719 37.8516 142.219 38.6016C142.734 39.3359 142.992 40.25 142.992 41.3438C142.992 42.625 142.773 43.7031 142.336 44.5781C141.898 45.4375 141.312 46.1406 140.578 46.6875C139.844 47.2188 138.992 47.6172 138.023 47.8828C137.055 48.1328 136.039 48.2891 134.977 48.3516V54.7734ZM178.148 30.3984C178.148 31.7891 177.961 32.9922 177.586 34.0078C177.211 35.0078 176.703 35.8672 176.062 36.5859C175.422 37.3047 174.664 37.9141 173.789 38.4141C172.93 38.8984 172.008 39.3281 171.023 39.7031C170.039 40.0781 169.016 40.4141 167.953 40.7109C166.906 41.0078 165.867 41.3203 164.836 41.6484C163.805 41.9766 162.812 42.3516 161.859 42.7734C160.906 43.1953 160.047 43.7188 159.281 44.3438C158.516 44.9531 157.859 45.6953 157.312 46.5703C156.766 47.4297 156.391 48.4688 156.188 49.6875H178.148V54H146.18C146.523 51.8438 147.016 49.9844 147.656 48.4219C148.297 46.8438 149.039 45.4922 149.883 44.3672C150.727 43.2422 151.641 42.3047 152.625 41.5547C153.625 40.7891 154.648 40.1484 155.695 39.6328C156.742 39.1016 157.797 38.6641 158.859 38.3203C159.922 37.9609 160.945 37.6172 161.93 37.2891C162.914 36.9609 163.828 36.6172 164.672 36.2578C165.531 35.8828 166.273 35.4219 166.898 34.875C167.539 34.3281 168.039 33.6641 168.398 32.8828C168.758 32.0859 168.938 31.1016 168.938 29.9297C168.938 28.8672 168.758 27.9375 168.398 27.1406C168.039 26.3438 167.547 25.6797 166.922 25.1484C166.297 24.6172 165.555 24.2188 164.695 23.9531C163.852 23.6875 162.945 23.5547 161.977 23.5547C160.961 23.5547 160.016 23.7422 159.141 24.1172C158.281 24.4922 157.5 25.0234 156.797 25.7109C156.109 26.3828 155.508 27.1953 154.992 28.1484C154.492 29.1016 154.109 30.1641 153.844 31.3359L146.648 27.3516C147.289 26.0391 148.195 24.8984 149.367 23.9297C150.555 22.9609 151.867 22.1562 153.305 21.5156C154.742 20.8594 156.234 20.375 157.781 20.0625C159.344 19.7344 160.82 19.5703 162.211 19.5703C163.555 19.5703 164.883 19.625 166.195 19.7344C167.508 19.8438 168.75 20.0469 169.922 20.3438C171.109 20.6406 172.203 21.0469 173.203 21.5625C174.203 22.0781 175.07 22.7422 175.805 23.5547C176.539 24.3516 177.109 25.3125 177.516 26.4375C177.938 27.5625 178.148 28.8828 178.148 30.3984ZM191.625 50.4844C191.625 51.0781 191.516 51.6406 191.297 52.1719C191.078 52.6875 190.773 53.1406 190.383 53.5312C189.992 53.9062 189.539 54.2031 189.023 54.4219C188.508 54.6562 187.953 54.7734 187.359 54.7734C186.766 54.7734 186.211 54.6562 185.695 54.4219C185.18 54.2031 184.727 53.9062 184.336 53.5312C183.945 53.1406 183.641 52.6875 183.422 52.1719C183.203 51.6406 183.094 51.0781 183.094 50.4844C183.094 49.9062 183.203 49.3594 183.422 48.8438C183.641 48.3125 183.945 47.8594 184.336 47.4844C184.727 47.0938 185.18 46.7891 185.695 46.5703C186.211 46.3359 186.766 46.2188 187.359 46.2188C187.953 46.2188 188.508 46.3359 189.023 46.5703C189.539 46.7891 189.992 47.0938 190.383 47.4844C190.773 47.8594 191.078 48.3125 191.297 48.8438C191.516 49.3594 191.625 49.9062 191.625 50.4844ZM220.406 44.1094C220.406 42.9375 220.203 41.9375 219.797 41.1094C219.406 40.2656 218.859 39.5781 218.156 39.0469C217.469 38.5156 216.656 38.125 215.719 37.875C214.797 37.625 213.805 37.5 212.742 37.5C211.711 37.5 210.742 37.6406 209.836 37.9219C208.93 38.1875 208.141 38.5938 207.469 39.1406C206.812 39.6875 206.289 40.375 205.898 41.2031C205.508 42.0312 205.312 43 205.312 44.1094C205.312 45.1875 205.508 46.1406 205.898 46.9688C206.305 47.7812 206.844 48.4688 207.516 49.0312C208.188 49.5938 208.969 50.0156 209.859 50.2969C210.766 50.5781 211.727 50.7188 212.742 50.7188C213.711 50.7188 214.656 50.5781 215.578 50.2969C216.5 50 217.312 49.5703 218.016 49.0078C218.734 48.4453 219.312 47.7578 219.75 46.9453C220.188 46.1172 220.406 45.1719 220.406 44.1094ZM204.562 34.9219C203.828 34.6562 203.125 34.3047 202.453 33.8672C201.781 33.4141 201.18 32.9062 200.648 32.3438C200.133 31.7812 199.719 31.1641 199.406 30.4922C199.094 29.8203 198.938 29.1172 198.938 28.3828C198.938 27.2422 199.148 26.2344 199.57 25.3594C199.992 24.4688 200.562 23.7031 201.281 23.0625C202 22.4219 202.828 21.8906 203.766 21.4688C204.703 21.0312 205.68 20.6797 206.695 20.4141C207.727 20.1484 208.758 19.9609 209.789 19.8516C210.836 19.7422 211.82 19.6875 212.742 19.6875C213.68 19.6875 214.672 19.7422 215.719 19.8516C216.781 19.9453 217.828 20.1172 218.859 20.3672C219.891 20.6172 220.883 20.9531 221.836 21.375C222.789 21.7969 223.625 22.3281 224.344 22.9688C225.062 23.6094 225.633 24.375 226.055 25.2656C226.492 26.1562 226.711 27.1953 226.711 28.3828C226.711 29.1016 226.555 29.8047 226.242 30.4922C225.93 31.1641 225.523 31.7891 225.023 32.3672C224.523 32.9453 223.953 33.4609 223.312 33.9141C222.672 34.3516 222.023 34.6953 221.367 34.9453C222.461 35.1797 223.508 35.5703 224.508 36.1172C225.508 36.6484 226.391 37.3125 227.156 38.1094C227.922 38.8906 228.523 39.7891 228.961 40.8047C229.414 41.8203 229.641 42.9219 229.641 44.1094C229.641 45.625 229.383 46.9453 228.867 48.0703C228.367 49.1797 227.688 50.125 226.828 50.9062C225.969 51.6875 224.969 52.3281 223.828 52.8281C222.703 53.3125 221.516 53.6953 220.266 53.9766C219.016 54.2422 217.742 54.4219 216.445 54.5156C215.148 54.625 213.914 54.6797 212.742 54.6797C211.617 54.6797 210.422 54.6172 209.156 54.4922C207.906 54.3672 206.664 54.1484 205.43 53.8359C204.195 53.5234 203.008 53.1094 201.867 52.5938C200.742 52.0781 199.75 51.4297 198.891 50.6484C198.031 49.8672 197.344 48.9375 196.828 47.8594C196.328 46.7812 196.078 45.5312 196.078 44.1094C196.078 42.9062 196.312 41.7891 196.781 40.7578C197.25 39.7266 197.875 38.8125 198.656 38.0156C199.438 37.2188 200.336 36.5547 201.352 36.0234C202.383 35.4922 203.453 35.125 204.562 34.9219ZM212.742 24.1641C211.961 24.1641 211.227 24.2578 210.539 24.4453C209.867 24.6172 209.273 24.8906 208.758 25.2656C208.258 25.6406 207.859 26.125 207.562 26.7188C207.281 27.3125 207.141 28.0234 207.141 28.8516C207.141 29.6484 207.289 30.3438 207.586 30.9375C207.883 31.5156 208.281 32 208.781 32.3906C209.297 32.7656 209.891 33.0469 210.562 33.2344C211.25 33.4219 211.977 33.5156 212.742 33.5156C213.477 33.5156 214.188 33.4219 214.875 33.2344C215.578 33.0469 216.195 32.7578 216.727 32.3672C217.273 31.9766 217.711 31.4922 218.039 30.9141C218.367 30.3203 218.531 29.6328 218.531 28.8516C218.531 27.9766 218.383 27.2422 218.086 26.6484C217.789 26.0547 217.375 25.5781 216.844 25.2188C216.328 24.8438 215.719 24.5781 215.016 24.4219C214.312 24.25 213.555 24.1641 212.742 24.1641Z" fill="black"/>
</svg>
